Coordinates
version=1
nRows=19
nColumns=24
inDegrees=yes

Units are S.I. units (second, meters, Newtons, ...)
Angles are in degrees.

endheader
time	pelvis_tilt	pelvis_list	pelvis_rotation	pelvis_tx	pelvis_ty	pelvis_tz	hip_flexion_r	hip_adduction_r	hip_rotation_r	knee_angle_r	ankle_angle_r	subtalar_angle_r	mtp_angle_r	hip_flexion_l	hip_adduction_l	hip_rotation_l	knee_angle_l	ankle_angle_l	subtalar_angle_l	mtp_angle_l	lumbar_extension	lumbar_bending	lumbar_rotation
     45.72000000	      2.62305390	     -1.76944611	     -1.32766138	     -0.04086951	      0.92701803	      0.03284356	     -6.53118171	      7.00989627	     -0.48139034	     -8.21516050	     10.61164819	     -2.72391855	      0.00000000	     26.70180120	     -2.20391931	     -1.49450917	    -51.77366651	      2.29949840	     -6.26336396	      0.00000000	    -13.19596779	      2.02619214	      0.55352224
     45.73000000	      2.48207570	     -1.73981951	     -1.55417644	     -0.04216863	      0.92661576	      0.03302983	     -7.04955728	      6.92441062	     -0.25516165	     -8.14072359	     10.80581640	     -2.33040694	      0.00000000	     26.94806228	     -2.17720768	     -1.45702839	    -48.34525982	      1.98511827	     -6.13780189	      0.00000000	    -13.17654059	      1.96061294	      0.84326785
     45.74000000	      2.33406641	     -1.79888483	     -1.73379351	     -0.04345158	      0.92590569	      0.03310688	     -7.60885782	      6.92462340	     -0.02793640	     -7.95012212	     10.95661788	     -2.18773529	      0.00000000	     27.11274544	     -2.20819525	     -1.31793510	    -44.76585810	      1.59501972	     -5.98903177	      0.00000000	    -13.15816832	      2.01200382	      1.08233598
     45.75000000	      2.19368981	     -1.93110316	     -1.87786991	     -0.04468817	      0.92493781	      0.03320272	     -8.23441908	      7.03853181	      0.30983973	     -7.65325242	     11.11640680	     -2.26109858	      0.00000000	     27.17874712	     -2.31760533	     -1.12355241	    -41.11345602	      1.24775600	     -5.65663594	      0.00000000	    -13.15757078	      2.14384498	      1.30329770
     45.76000000	      2.00755033	     -2.07435630	     -2.03090214	     -0.04588059	      0.92396337	      0.03320196	     -8.77702482	      7.11860284	      0.48890896	     -7.43933892	     11.30284231	     -2.05225776	      0.00000000	     27.14558826	     -2.44455883	     -1.00509210	    -37.25259008	      0.95298207	     -5.33842130	      0.00000000	    -13.09955097	      2.30475123	      1.51525524
     45.77000000	      1.82292934	     -2.24167523	     -2.13639881	     -0.04696247	      0.92286158	      0.03303861	     -9.36091266	      7.20713467	      0.52422721	     -7.13667467	     11.48312410	     -1.68598082	      0.00000000	     26.99711570	     -2.56192565	     -0.78002110	    -33.26926726	      0.91649894	     -4.77330368	      0.00000000	    -13.03978884	      2.50785915	      1.67529431
     45.78000000	      1.62074257	     -2.45472541	     -2.24477461	     -0.04802494	      0.92156269	      0.03279051	     -9.91429375	      7.32344100	      0.48135437	     -6.88169246	     11.63987409	     -1.23421511	      0.00000000	     26.76423232	     -2.73201499	     -0.58883090	    -29.23555516	      1.01257412	     -4.01264982	      0.00000000	    -12.97159387	      2.77599176	      1.83158176
     45.79000000	      1.41545148	     -2.69785852	     -2.31725279	     -0.04902879	      0.92010492	      0.03247572	    -10.51221404	      7.47764184	      0.41956986	     -6.55250395	     11.81371161	     -0.75268815	      0.00000000	     26.45227979	     -2.91767498	     -0.42871240	    -25.18952458	      1.26571832	     -3.12649358	      0.00000000	    -12.89746593	      3.08657020	      1.98133394
     45.80000000	      1.17274195	     -2.97152002	     -2.35631973	     -0.04992869	      0.91866667	      0.03207318	    -11.02340134	      7.65810366	      0.28312664	     -6.28278313	     11.94628973	     -0.27858358	      0.00000000	     26.09787823	     -3.13057675	     -0.33861118	    -21.13880619	      1.52268334	     -2.29881605	      0.00000000	    -12.77262958	      3.44534295	      2.05827104
     45.81000000	      0.89337670	     -3.27746541	     -2.33583923	     -0.05076205	      0.91691258	      0.03162754	    -11.51041299	      7.89405933	      0.18951987	     -6.01573688	     12.06839876	     -0.02568315	      0.00000000	     25.72952486	     -3.34758144	     -0.22833656	    -17.17846716	      1.76428605	     -1.47704442	      0.00000000	    -12.60737475	      3.83698275	      2.08969603
     45.82000000	      0.66355209	     -3.59901694	     -2.29084494	     -0.05151273	      0.91499510	      0.03111270	    -12.03489666	      8.17152738	      0.12937522	     -5.83965528	     12.14685722	      0.14792162	      0.00000000	     25.34444093	     -3.57635206	     -0.17777857	    -13.56510659	      2.11559656	     -1.01861680	      0.00000000	    -12.48480464	      4.25281428	      2.08886791
     45.83000000	      0.38379532	     -3.88916135	     -2.25615843	     -0.05216852	      0.91313254	      0.03043186	    -12.41057001	      8.40165164	      0.03848803	     -5.85889782	     12.24559190	      0.40744473	      0.00000000	     25.07926221	     -3.75960605	     -0.29101023	    -10.38801266	      2.36657170	     -0.32545487	      0.00000000	    -12.28829666	      4.65222113	      2.08861501
     45.84000000	      0.15875892	     -4.10340434	     -2.20440896	     -0.05266866	      0.91133125	      0.02963318	    -12.81707373	      8.54916387	     -0.04202976	     -5.93061369	     12.26947806	      0.80668461	      0.00000000	     24.77467060	     -3.85387450	     -0.38660256	     -7.70015250	      2.80822366	     -0.32175672	      0.00000000	    -12.13447948	      4.97261968	      2.06675184
     45.85000000	     -0.04973849	     -4.23978029	     -2.17079931	     -0.05294825	      0.90958978	      0.02876070	    -13.19150583	      8.59402405	     -0.04682696	     -6.09618699	     12.35850103	      0.99431744	      0.00000000	     24.47504071	     -3.84313475	     -0.66909556	     -5.46433985	      3.19193750	      0.17214674	      0.00000000	    -11.97231747	      5.20382339	      2.04476643
     45.86000000	     -0.06374076	     -4.31157847	     -2.22184956	     -0.05288934	      0.90815774	      0.02788052	    -13.73237609	      8.53294933	     -0.04245483	     -6.40934780	     12.45074507	      1.25541460	      0.00000000	     24.01087790	     -3.73222789	     -1.47516210	     -3.83897587	      3.53315223	      1.97809888	      0.00000000	    -12.00149336	      5.34672255	      2.09965390
     45.87000000	     -0.10129323	     -4.34435751	     -2.30198702	     -0.05262719	      0.90691756	      0.02703953	    -14.19715111	      8.42601915	     -0.00478378	     -6.83127030	     12.45049013	      1.40419975	      0.00000000	     23.68386209	     -3.62179538	     -2.33858527	     -3.02005500	      4.36928518	      2.00011896	      0.00000000	    -11.97488909	      5.44018376	      2.13165193
     45.88000000	     -0.07513519	     -4.33611490	     -2.36670203	     -0.05208447	      0.90565256	      0.02611451	    -14.71587579	      8.26268872	     -0.02921837	     -7.30953009	     12.52776615	      1.69632245	      0.00000000	     23.47354549	     -3.41481749	     -3.46350562	     -3.07719462	      5.10019891	      3.14139958	      0.00000000	    -11.98744778	      5.48343367	      2.15533624
     45.89000000	     -0.09593893	     -4.24573605	     -2.40089159	     -0.05144796	      0.90434307	      0.02501305	    -15.11366108	      8.01549436	     -0.14530868	     -7.89324570	     12.45976218	      1.86525966	      0.00000000	     23.37521802	     -3.16755962	     -3.89261925	     -3.76879266	      4.87609972	      3.11127707	      0.00000000	    -11.93958410	      5.44744812	      2.14283377
     45.90000000	     -0.11087573	     -4.10218727	     -2.46484524	     -0.05060369	      0.90327719	      0.02369307	    -15.44954918	      7.67763216	     -0.41401703	     -8.65565846	     12.41141867	      2.17301616	      0.00000000	     23.22782884	     -2.88212396	     -3.62348412	     -4.69028229	      4.17694116	      1.77662716	      0.00000000	    -11.86838397	      5.37988266	      2.13218312
